<?xml version="1.0" encoding="UTF-8"?>
<!DOCTYPE svg PUBLIC "-//W3C//DTD SVG 1.1//EN" "http://www.w3.org/Graphics/SVG/1.1/DTD/svg11.dtd">
<!-- Creator: CorelDRAW 2018 (64-Bit Evaluation Version) -->
<svg xmlns="http://www.w3.org/2000/svg" xml:space="preserve" width="36.3696mm" height="37.5066mm" version="1.1" style="shape-rendering:geometricPrecision; text-rendering:geometricPrecision; image-rendering:optimizeQuality; fill-rule:evenodd; clip-rule:evenodd"
viewBox="0 0 534.59 551.3"
 xmlns:xlink="http://www.w3.org/1999/xlink"
 enable-background="new 0 0 200 200">
 <defs>
  <style type="text/css">
   <![CDATA[
    .fil0 {fill:white}
   ]]>
  </style>
 </defs>
 <g id="Layer_x0020_1">
  <metadata id="CorelCorpID_0Corel-Layer"/>
  <g id="_2093370480224">
   <g>
    <g enable-background="new    ">
     <g>
      <g>
       <path class="fil0" d="M406.54 480.22c-0.01,0 -0.02,0.01 -0.04,0.02 -0.01,0 -0.02,0.01 -0.04,0.01 -0.01,0.01 -0.03,0.02 -0.04,0.02 -0.01,0.01 -0.02,0.01 -0.04,0.02 -2.6,1.17 -5.25,1.66 -7.8,1.53 -2.57,-0.13 -5.04,-0.89 -7.27,-2.19 -2.24,-1.31 -4.24,-3.17 -5.83,-5.5 -1.6,-2.34 -2.8,-5.14 -3.44,-8.32 -0.65,-3.19 -0.67,-6.51 -0.17,-9.76 0.5,-3.24 1.52,-6.41 2.96,-9.3 1.43,-2.87 3.28,-5.47 5.43,-7.6 2.14,-2.12 4.59,-3.77 7.24,-4.78 0.01,-0 0.03,-0.01 0.04,-0.02 0.01,-0.01 0.02,-0.01 0.04,-0.02 0.01,-0.01 0.03,-0.01 0.04,-0.01 0.01,-0.01 0.02,-0.01 0.04,-0.02 2.59,-0.95 5.21,-1.21 7.72,-0.87 2.49,0.34 4.87,1.25 7,2.66 2.11,1.39 3.97,3.27 5.46,5.53 1.47,2.25 2.57,4.89 3.15,7.83 0.58,2.97 0.61,6.07 0.17,9.11 -0.44,3.06 -1.35,6.08 -2.66,8.87 -1.3,2.81 -3.01,5.41 -5.02,7.59 -2.02,2.21 -4.37,4 -6.94,5.19l0 0zm-7.5 -434.66c-12.55,-2.98 -25.58,-6.07 -39.12,-9.3 -14.09,-3.35 -28.75,-6.85 -44.03,-10.5 -15.93,-3.81 -32.55,-7.81 -49.91,-11.98 -18.15,-4.38 -37.16,-8.96 -57.06,-13.78 -1.67,0.15 -3.38,0.25 -5.11,0.33 -1.73,0.09 -3.49,0.16 -5.22,0.27 -1.74,0.11 -3.47,0.26 -5.14,0.49 -1.68,0.23 -3.32,0.54 -4.87,0.99 -5.9,1.71 -10.87,4.18 -14.93,7.37 -4.1,3.22 -7.24,7.18 -9.43,11.81 -2.2,4.66 -3.45,10 -3.75,15.96 -0.3,5.97 0.35,12.54 1.92,19.65 7.41,33.8 14.76,67.33 22.06,100.57 7.24,32.97 14.42,65.66 21.54,98.09 7.06,32.16 14.07,64.05 21.02,95.68 6.89,31.38 13.72,62.5 20.5,93.38 1.25,5.68 2.48,11.36 3.7,17.03 1.22,5.67 2.44,11.32 3.67,16.96 1.22,5.64 2.45,11.26 3.71,16.86 1.25,5.6 2.52,11.17 3.83,16.72 1.47,6.24 3.53,11.8 6.18,16.64 2.63,4.82 5.84,8.89 9.62,12.21 3.75,3.28 8.05,5.8 12.9,7.53 4.79,1.7 10.1,2.63 15.91,2.76 1.51,0.04 3.05,-0.04 4.6,-0.21 1.54,-0.16 3.1,-0.41 4.65,-0.7 1.55,-0.28 3.1,-0.6 4.64,-0.9 1.54,-0.3 3.06,-0.59 4.57,-0.82 15.9,-8.17 31.12,-15.96 45.72,-23.42 14.01,-7.13 27.45,-13.96 40.38,-20.5 12.43,-6.28 24.4,-12.3 35.92,-18.1 11.11,-5.57 21.82,-10.94 32.17,-16.1 0.75,-0.75 1.51,-1.49 2.28,-2.21 0.77,-0.73 1.53,-1.45 2.29,-2.18 0.75,-0.73 1.49,-1.47 2.2,-2.25 0.71,-0.78 1.39,-1.58 2.04,-2.45 2.6,-3.52 4.77,-7.13 6.51,-10.86 1.72,-3.69 3.03,-7.51 3.91,-11.43 0.87,-3.92 1.33,-7.96 1.37,-12.14 0.04,-4.18 -0.36,-8.5 -1.18,-12.99 -0.54,-2.92 -1.08,-5.83 -1.62,-8.76 -0.54,-2.92 -1.08,-5.85 -1.63,-8.77 -0.54,-2.93 -1.09,-5.86 -1.63,-8.79 -0.55,-2.93 -1.09,-5.86 -1.64,-8.8 -0.05,-0.28 -0.11,-0.56 -0.17,-0.82 -0.06,-0.27 -0.12,-0.54 -0.18,-0.8 -0.06,-0.26 -0.12,-0.52 -0.19,-0.78 -0.06,-0.26 -0.12,-0.52 -0.18,-0.77 -12.95,4.31 -26.48,8.82 -40.64,13.55 -14.85,4.98 -30.42,10.22 -46.78,15.74 -17.22,5.83 -35.35,11.99 -54.5,18.51 -20.23,6.92 -41.64,14.28 -64.35,22.11 -6.44,-30.04 -12.93,-60.31 -19.48,-90.82 -6.6,-30.75 -13.26,-61.75 -19.97,-92.99 -6.77,-31.5 -13.59,-63.25 -20.48,-95.26 -6.95,-32.28 -13.95,-64.83 -21.01,-97.66 23.45,3.66 45.63,7.11 66.65,10.37 19.96,3.09 38.94,6.02 57.01,8.81 17.22,2.65 33.66,5.17 49.38,7.58 15.02,2.3 29.42,4.49 43.23,6.6 0.24,1.26 0.47,2.51 0.7,3.75 0.23,1.23 0.47,2.46 0.7,3.68 0.23,1.22 0.46,2.43 0.68,3.64 0.23,1.21 0.46,2.41 0.68,3.61 0.31,1.67 0.55,2.92 0.81,3.87 0.26,0.95 0.55,1.59 0.97,2.05 0.42,0.45 0.96,0.72 1.74,0.91 0.78,0.2 1.78,0.31 3.12,0.47 0.97,0.11 1.93,0.23 2.9,0.35 0.96,0.11 1.91,0.22 2.87,0.34 0.95,0.11 1.9,0.22 2.84,0.34 0.94,0.11 1.88,0.22 2.82,0.33 0.31,0.04 0.63,0.08 0.94,0.11 0.31,0.04 0.63,0.08 0.95,0.11 0.32,0.04 0.64,0.08 0.96,0.11 0.32,0.04 0.64,0.08 0.97,0.11 -0.5,-2.7 -0.97,-5.37 -1.42,-8.01 -0.46,-2.64 -0.9,-5.25 -1.35,-7.84 -0.46,-2.59 -0.93,-5.17 -1.46,-7.75 -0.52,-2.58 -1.08,-5.14 -1.72,-7.73 -0.97,-3.9 -2.22,-7.64 -3.75,-11.21 -1.53,-3.59 -3.33,-7.02 -5.41,-10.27 -2.08,-3.27 -4.44,-6.39 -7.05,-9.31 -2.64,-2.95 -5.54,-5.73 -8.71,-8.31 -1.22,-0.99 -2.48,-1.9 -3.76,-2.77 -1.28,-0.87 -2.58,-1.69 -3.88,-2.49 -1.31,-0.8 -2.64,-1.58 -3.97,-2.37 -1.34,-0.79 -2.68,-1.59 -4,-2.44z"/>
      </g>
      <g>
       <path class="fil0" d="M467.34 285.96c-0.01,0 -0.02,0 -0.03,0.01 -0.01,0 -0.02,0 -0.03,0 -0.01,0 -0.02,0 -0.03,0 -0.01,0 -0.02,0 -0.03,0.01 -3.32,0.51 -6.72,0.09 -10.01,-1.11 -3.32,-1.22 -6.52,-3.24 -9.42,-5.91 -2.93,-2.69 -5.54,-6.03 -7.64,-9.84 -2.11,-3.83 -3.7,-8.14 -4.57,-12.72 -0.87,-4.62 -0.96,-9.09 -0.36,-13.22 0.59,-4.12 1.85,-7.88 3.66,-11.07 1.8,-3.17 4.15,-5.78 6.91,-7.65 2.74,-1.84 5.89,-2.94 9.33,-3.14 0.02,-0 0.04,-0 0.06,-0 0.02,0 0.04,-0 0.06,-0 0.02,-0 0.04,0 0.06,-0 0.02,0 0.04,0 0.06,-0 3.36,-0.15 6.72,0.63 9.92,2.15 3.16,1.5 6.15,3.72 8.82,6.48 2.64,2.74 4.97,6.02 6.82,9.67 1.84,3.64 3.22,7.65 3.97,11.89 0.75,4.23 0.84,8.35 0.36,12.18 -0.49,3.84 -1.55,7.41 -3.11,10.51 -1.56,3.13 -3.63,5.8 -6.11,7.82 -2.5,2.04 -5.43,3.43 -8.69,3.95l0 0zm-36.55 -140.16c-0.46,-0.04 -0.77,0.03 -0.99,0.16 -0.22,0.14 -0.33,0.36 -0.38,0.63 -0.05,0.27 -0.03,0.6 0.02,0.95 0.05,0.35 0.12,0.73 0.2,1.12 0.38,2.03 0.76,4.05 1.13,6.08 0.37,2.03 0.75,4.05 1.13,6.08 0.38,2.02 0.76,4.04 1.15,6.06 0.39,2.02 0.79,4.04 1.21,6.05 0.14,0.65 0.2,1.2 0.2,1.66 -0,0.46 -0.08,0.84 -0.22,1.16 -0.15,0.31 -0.37,0.55 -0.66,0.74 -0.3,0.19 -0.67,0.33 -1.13,0.43 -1.66,0.38 -3.29,0.87 -4.86,1.47 -1.59,0.6 -3.13,1.31 -4.62,2.14 -1.51,0.82 -2.96,1.74 -4.38,2.78 -1.42,1.04 -2.79,2.17 -4.11,3.41 -0.15,0.14 -0.3,0.25 -0.44,0.36 -0.14,0.1 -0.28,0.18 -0.42,0.25 -0.14,0.07 -0.27,0.11 -0.4,0.14 -0.13,0.04 -0.26,0.05 -0.39,0.05 -0.17,0 -0.35,-0.04 -0.54,-0.1 -0.18,-0.06 -0.37,-0.16 -0.56,-0.28 -0.19,-0.12 -0.39,-0.27 -0.6,-0.46 -0.21,-0.18 -0.43,-0.39 -0.67,-0.63 -1.64,-1.7 -3.3,-3.39 -4.97,-5.09 -1.67,-1.7 -3.36,-3.4 -5.04,-5.1 -1.69,-1.71 -3.39,-3.41 -5.08,-5.12 -1.7,-1.71 -3.4,-3.43 -5.1,-5.13 -1.3,1.9 -2.59,3.8 -3.9,5.7 -1.3,1.92 -2.62,3.84 -3.95,5.79 -1.33,1.97 -2.69,3.97 -4.07,6.01 -1.39,2.06 -2.82,4.17 -4.29,6.35 2.04,1.86 4.08,3.73 6.12,5.58 2.03,1.85 4.05,3.69 6.06,5.52 2,1.83 4,3.65 5.98,5.46 1.98,1.81 3.94,3.6 5.89,5.39 -0.75,2.2 -1.42,4.43 -2.02,6.68 -0.59,2.26 -1.09,4.54 -1.5,6.86 -0.4,2.32 -0.71,4.68 -0.9,7.08 -0.19,2.4 -0.26,4.85 -0.2,7.35 0.02,0.87 -0.02,1.61 -0.14,2.22 -0.12,0.62 -0.31,1.12 -0.6,1.52 -0.29,0.4 -0.66,0.7 -1.15,0.91 -0.48,0.21 -1.07,0.34 -1.78,0.39 -0.05,0 -0.09,0.01 -0.14,0.01 -0.05,0 -0.09,0 -0.14,0.01 -0.05,0 -0.1,0 -0.15,0.01 -0.05,0 -0.1,0 -0.15,0 -0.84,0.03 -1.68,0.07 -2.52,0.11 -0.84,0.04 -1.69,0.09 -2.54,0.14 -0.85,0.05 -1.7,0.1 -2.55,0.17 -0.86,0.06 -1.72,0.12 -2.58,0.19 -1.15,0.09 -2.31,0.18 -3.47,0.27 -1.16,0.1 -2.34,0.2 -3.51,0.3 -1.18,0.1 -2.37,0.2 -3.57,0.3 -1.2,0.1 -2.41,0.2 -3.62,0.29 0.58,2.92 1.16,5.8 1.72,8.67 0.57,2.86 1.14,5.72 1.71,8.57 0.57,2.84 1.14,5.69 1.7,8.54 0.57,2.85 1.14,5.72 1.72,8.61 2.45,-0.32 4.88,-0.64 7.28,-0.95 2.38,-0.31 4.74,-0.62 7.08,-0.93 2.33,-0.3 4.63,-0.6 6.92,-0.9 2.28,-0.3 4.54,-0.59 6.8,-0.88 0.99,2.68 2.06,5.27 3.21,7.78 1.15,2.5 2.37,4.93 3.67,7.28 1.29,2.34 2.66,4.62 4.09,6.82 1.43,2.2 2.92,4.33 4.47,6.41 0.14,0.19 0.26,0.46 0.34,0.77 0.08,0.31 0.14,0.66 0.16,1.01 0.02,0.35 0.02,0.7 -0.02,1.02 -0.04,0.32 -0.11,0.61 -0.21,0.83 -0.47,0.97 -0.95,1.94 -1.45,2.89 -0.5,0.95 -1,1.9 -1.52,2.85 -0.52,0.95 -1.04,1.89 -1.57,2.83 -0.53,0.95 -1.07,1.89 -1.61,2.84 -0.58,1.01 -1.16,2.02 -1.75,3.01 -0.59,1 -1.18,2 -1.77,2.99 -0.59,1 -1.18,1.98 -1.77,2.96 -0.58,0.98 -1.16,1.96 -1.73,2.92 2.1,1.7 4.15,3.34 6.16,4.96 2,1.61 3.96,3.19 5.91,4.77 1.94,1.57 3.87,3.13 5.8,4.69 1.93,1.56 3.86,3.12 5.81,4.71 1.02,-2.03 2.02,-4.02 3.01,-5.99 0.99,-1.96 1.96,-3.91 2.93,-5.83 0.96,-1.92 1.9,-3.82 2.84,-5.73 0.93,-1.89 1.84,-3.78 2.75,-5.67 0.14,-0.29 0.28,-0.55 0.43,-0.78 0.14,-0.23 0.29,-0.43 0.44,-0.6 0.15,-0.17 0.31,-0.31 0.47,-0.41 0.16,-0.1 0.34,-0.18 0.52,-0.22 0.13,-0.03 0.26,-0.04 0.41,-0.04 0.14,0 0.29,0.02 0.45,0.06 0.16,0.04 0.33,0.09 0.5,0.16 0.17,0.07 0.36,0.16 0.56,0.26 1.72,0.91 3.46,1.71 5.19,2.39 1.73,0.68 3.46,1.24 5.2,1.7 1.73,0.46 3.46,0.81 5.19,1.06 1.72,0.25 3.45,0.41 5.17,0.48 0.46,0.02 0.85,0.09 1.18,0.23 0.33,0.13 0.61,0.32 0.84,0.58 0.23,0.26 0.42,0.58 0.58,0.99 0.16,0.4 0.28,0.88 0.38,1.45 0.32,1.85 0.65,3.7 0.99,5.55 0.34,1.85 0.68,3.7 1.03,5.54 0.35,1.85 0.7,3.69 1.06,5.53 0.35,1.84 0.71,3.67 1.06,5.51 0.05,0.29 0.11,0.58 0.17,0.86 0.07,0.28 0.13,0.57 0.2,0.85 0.07,0.28 0.14,0.57 0.21,0.84 0.07,0.28 0.14,0.56 0.2,0.84 1.86,-0.54 3.69,-1.08 5.49,-1.61 1.8,-0.52 3.57,-1.05 5.34,-1.56 1.75,-0.52 3.5,-1.03 5.24,-1.54 1.73,-0.51 3.46,-1.02 5.2,-1.52 -0.06,-0.34 -0.12,-0.66 -0.18,-0.97 -0.05,-0.31 -0.11,-0.61 -0.17,-0.91 -0.06,-0.3 -0.11,-0.58 -0.16,-0.87 -0.05,-0.28 -0.1,-0.56 -0.16,-0.84 -0.33,-1.78 -0.65,-3.56 -0.98,-5.33 -0.32,-1.78 -0.65,-3.56 -0.98,-5.34 -0.33,-1.78 -0.66,-3.56 -1,-5.33 -0.34,-1.78 -0.68,-3.55 -1.04,-5.32 -0.1,-0.52 -0.16,-0.97 -0.16,-1.37 0,-0.4 0.05,-0.73 0.16,-1.04 0.11,-0.31 0.27,-0.56 0.5,-0.79 0.22,-0.23 0.51,-0.44 0.86,-0.62 1.39,-0.77 2.74,-1.62 4.04,-2.54 1.29,-0.92 2.54,-1.91 3.75,-2.98 1.2,-1.06 2.35,-2.19 3.45,-3.41 1.1,-1.21 2.15,-2.5 3.16,-3.85 0.12,-0.17 0.25,-0.32 0.37,-0.45 0.12,-0.14 0.24,-0.25 0.35,-0.35 0.12,-0.1 0.23,-0.17 0.35,-0.24 0.12,-0.06 0.23,-0.1 0.35,-0.13 0.15,-0.03 0.3,-0.04 0.45,-0.01 0.16,0.03 0.31,0.08 0.48,0.17 0.16,0.08 0.34,0.19 0.52,0.34 0.18,0.14 0.37,0.31 0.57,0.51 1.22,1.23 2.44,2.43 3.66,3.63 1.21,1.19 2.42,2.35 3.64,3.51 1.21,1.16 2.41,2.3 3.61,3.44 1.19,1.14 2.38,2.26 3.57,3.4 0.83,-1.93 1.64,-3.83 2.45,-5.7 0.8,-1.86 1.59,-3.71 2.38,-5.54 0.78,-1.81 1.56,-3.62 2.33,-5.42 0.77,-1.79 1.54,-3.57 2.31,-5.36 -0.05,-0.06 -0.12,-0.13 -0.19,-0.23 -0.08,-0.09 -0.17,-0.19 -0.26,-0.3 -0.1,-0.11 -0.2,-0.23 -0.31,-0.35 -0.1,-0.12 -0.22,-0.24 -0.33,-0.35 -1.03,-1.01 -2.05,-2.03 -3.08,-3.05 -1.03,-1.02 -2.07,-2.04 -3.1,-3.07 -1.04,-1.03 -2.09,-2.05 -3.14,-3.08 -1.06,-1.03 -2.12,-2.05 -3.2,-3.07 -0.36,-0.35 -0.67,-0.7 -0.93,-1.04 -0.25,-0.35 -0.45,-0.71 -0.58,-1.1 -0.13,-0.39 -0.19,-0.8 -0.17,-1.26 0.01,-0.46 0.1,-0.97 0.27,-1.55 0.16,-0.52 0.3,-1.05 0.43,-1.59 0.13,-0.54 0.25,-1.1 0.35,-1.66 0.1,-0.56 0.19,-1.12 0.27,-1.7 0.08,-0.57 0.14,-1.14 0.19,-1.7 0.14,-1.49 0.26,-2.97 0.38,-4.45 0.12,-1.49 0.24,-2.99 0.35,-4.49 0.11,-1.51 0.22,-3.02 0.34,-4.55 0.11,-1.54 0.23,-3.08 0.35,-4.65 1.43,-0.18 2.87,-0.36 4.31,-0.54 1.43,-0.18 2.88,-0.37 4.32,-0.55 1.44,-0.18 2.88,-0.36 4.32,-0.54 1.43,-0.18 2.86,-0.36 4.29,-0.54 -0.39,-2.17 -0.76,-4.31 -1.14,-6.44 -0.38,-2.14 -0.76,-4.27 -1.14,-6.4 -0.38,-2.14 -0.76,-4.27 -1.14,-6.42 -0.38,-2.15 -0.77,-4.32 -1.15,-6.51 -0.65,0.05 -1.31,0.1 -1.96,0.15 -0.65,0.05 -1.31,0.1 -1.96,0.15 -0.65,0.05 -1.31,0.1 -1.96,0.16 -0.66,0.05 -1.31,0.1 -1.97,0.15 -0.33,0.02 -0.66,0.05 -0.99,0.07 -0.33,0.02 -0.66,0.05 -0.99,0.07 -0.33,0.02 -0.66,0.05 -1,0.07 -0.33,0.02 -0.66,0.05 -1,0.07 -0.27,0.02 -0.54,0.05 -0.82,0.1 -0.28,0.05 -0.56,0.1 -0.85,0.16 -0.28,0.05 -0.57,0.1 -0.86,0.15 -0.29,0.05 -0.57,0.08 -0.85,0.1 -0.23,0.02 -0.46,0.02 -0.68,0.02 -0.22,-0.01 -0.44,-0.04 -0.65,-0.08 -0.21,-0.05 -0.42,-0.11 -0.62,-0.21 -0.2,-0.09 -0.39,-0.2 -0.57,-0.35 -0.37,-0.28 -0.68,-0.73 -0.96,-1.29 -0.28,-0.56 -0.53,-1.22 -0.77,-1.93 -0.24,-0.71 -0.47,-1.46 -0.71,-2.19 -0.24,-0.73 -0.51,-1.44 -0.81,-2.07 -0.73,-1.53 -1.47,-3.06 -2.22,-4.6 -0.75,-1.54 -1.51,-3.08 -2.28,-4.64 -0.77,-1.56 -1.56,-3.15 -2.35,-4.75 -0.8,-1.61 -1.61,-3.25 -2.43,-4.92 0.79,-1.45 1.59,-2.93 2.4,-4.41 0.81,-1.48 1.61,-2.97 2.42,-4.45 0.81,-1.48 1.61,-2.96 2.4,-4.43 0.79,-1.46 1.58,-2.9 2.35,-4.33 -1.46,-1.67 -2.89,-3.32 -4.33,-4.98 -1.45,-1.66 -2.89,-3.32 -4.35,-4.99 -1.46,-1.68 -2.93,-3.36 -4.41,-5.07 -1.49,-1.71 -3.01,-3.45 -4.54,-5.21 -0.74,1.37 -1.49,2.75 -2.25,4.15 -0.76,1.41 -1.53,2.83 -2.3,4.26 -0.78,1.43 -1.56,2.88 -2.34,4.34 -0.78,1.47 -1.57,2.95 -2.34,4.44 -0.09,0.17 -0.18,0.33 -0.27,0.47 -0.09,0.14 -0.18,0.25 -0.28,0.35 -0.1,0.09 -0.2,0.17 -0.31,0.21 -0.1,0.05 -0.22,0.07 -0.35,0.07 -0.08,0 -0.17,-0.01 -0.26,-0.04 -0.09,-0.03 -0.19,-0.07 -0.29,-0.11 -0.1,-0.05 -0.21,-0.1 -0.32,-0.18 -0.12,-0.08 -0.24,-0.16 -0.37,-0.26 -1.54,-1.19 -3.09,-2.31 -4.67,-3.33 -1.58,-1.03 -3.19,-1.98 -4.82,-2.84 -1.63,-0.86 -3.29,-1.63 -4.97,-2.29 -1.69,-0.68 -3.39,-1.25 -5.12,-1.72 -0.43,-0.12 -0.79,-0.29 -1.1,-0.49 -0.3,-0.21 -0.55,-0.45 -0.76,-0.75 -0.21,-0.3 -0.37,-0.65 -0.51,-1.05 -0.14,-0.4 -0.24,-0.86 -0.33,-1.38 -0.33,-1.88 -0.66,-3.78 -1,-5.66 -0.34,-1.89 -0.69,-3.78 -1.04,-5.66 -0.35,-1.89 -0.71,-3.78 -1.06,-5.67 -0.35,-1.89 -0.72,-3.78 -1.07,-5.67 -0.05,-0.29 -0.11,-0.58 -0.17,-0.88 -0.06,-0.3 -0.13,-0.59 -0.2,-0.9 -0.07,-0.3 -0.15,-0.61 -0.22,-0.93 -0.08,-0.32 -0.16,-0.65 -0.25,-1 -0.91,-0.07 -1.82,-0.15 -2.72,-0.22 -0.91,-0.07 -1.81,-0.15 -2.72,-0.22 -0.91,-0.08 -1.81,-0.15 -2.72,-0.22 -0.91,-0.08 -1.82,-0.15 -2.73,-0.23 -0.91,-0.07 -1.83,-0.15 -2.74,-0.23 -0.92,-0.07 -1.84,-0.15 -2.75,-0.23 -0.92,-0.08 -1.85,-0.16 -2.77,-0.24 -0.93,-0.09 -1.87,-0.17 -2.8,-0.25z"/>
      </g>
      <path class="fil0" d="M338.6 229.61c-5.3,0.27 -10.66,0.54 -16.08,0.81 -5.5,0.28 -11.07,0.56 -16.72,0.85 -5.73,0.29 -11.54,0.58 -17.45,0.89 -6,0.3 -12.11,0.61 -18.33,0.94 0.74,3.51 1.49,6.99 2.23,10.45 0.74,3.46 1.48,6.9 2.21,10.32 0.73,3.42 1.44,6.82 2.14,10.22 0.7,3.4 1.38,6.78 2.03,10.16 0.18,0.96 0.4,1.74 0.7,2.35 0.29,0.61 0.65,1.06 1.09,1.38 0.44,0.32 0.98,0.5 1.63,0.58 0.65,0.08 1.41,0.05 2.32,-0.05 2.41,-0.3 4.81,-0.59 7.2,-0.88 2.37,-0.28 4.73,-0.57 7.06,-0.84 2.33,-0.27 4.64,-0.54 6.94,-0.81 2.28,-0.26 4.55,-0.52 6.81,-0.78 2.69,-0.3 5.36,-0.61 8.02,-0.9 2.64,-0.3 5.25,-0.59 7.85,-0.88 2.58,-0.29 5.14,-0.57 7.69,-0.86 2.52,-0.28 5.04,-0.57 7.53,-0.84 0.29,-0.04 0.57,-0.07 0.86,-0.1 0.29,-0.04 0.58,-0.07 0.88,-0.1 0.3,-0.03 0.6,-0.07 0.9,-0.1 0.31,-0.03 0.63,-0.07 0.95,-0.11 -0.72,-3.52 -1.42,-7.02 -2.12,-10.5 -0.7,-3.48 -1.4,-6.94 -2.1,-10.4 -0.7,-3.46 -1.4,-6.91 -2.1,-10.38 -0.71,-3.46 -1.41,-6.94 -2.12,-10.44z"/>
      <path class="fil0" d="M361.14 341.46c-5.01,1.11 -10.08,2.23 -15.21,3.37 -5.21,1.16 -10.49,2.33 -15.85,3.52 -5.44,1.21 -10.95,2.44 -16.56,3.69 -5.69,1.27 -11.47,2.57 -17.35,3.88 0.78,3.72 1.56,7.42 2.34,11.1 0.78,3.68 1.55,7.35 2.32,11 0.77,3.66 1.54,7.31 2.31,10.95 0.77,3.65 1.54,7.3 2.31,10.96 5.79,-1.68 11.48,-3.32 17.08,-4.93 5.51,-1.59 10.94,-3.15 16.28,-4.68 5.26,-1.51 10.44,-3 15.55,-4.46 5.03,-1.44 10,-2.86 14.9,-4.26 -0.68,-3.38 -1.36,-6.73 -2.03,-10.08 -0.68,-3.35 -1.35,-6.69 -2.02,-10.02 -0.67,-3.34 -1.34,-6.67 -2.02,-10.01 -0.68,-3.33 -1.36,-6.68 -2.03,-10.03z"/>
      <path class="fil0" d="M316.33 119.65c-5.5,-0.59 -11.08,-1.19 -16.72,-1.79 -5.73,-0.61 -11.54,-1.24 -17.44,-1.87 -5.99,-0.65 -12.07,-1.29 -18.26,-1.96 -6.28,-0.68 -12.67,-1.37 -19.19,-2.07 0.83,3.94 1.66,7.86 2.49,11.76 0.82,3.9 1.64,7.8 2.47,11.69 0.82,3.89 1.64,7.78 2.46,11.68 0.82,3.89 1.64,7.79 2.47,11.71 6.44,0.31 12.75,0.61 18.94,0.9 6.09,0.29 12.08,0.58 17.95,0.86 5.79,0.27 11.48,0.54 17.09,0.81 5.52,0.26 10.96,0.52 16.33,0.77 -0.72,-3.55 -1.43,-7.1 -2.15,-10.63 -0.72,-3.54 -1.43,-7.07 -2.14,-10.6 -0.71,-3.54 -1.43,-7.07 -2.15,-10.61 -0.71,-3.54 -1.42,-7.08 -2.15,-10.65z"/>
     </g>
    </g>
   </g>
   <g>
    <path class="fil0" d="M42.08 365.04c-4.44,3.82 -9.65,5.65 -15.21,5.91 -7.79,0.36 -14.63,-2.36 -20.05,-8.22 -4.58,-4.97 -6.83,-10.73 -6.81,-17.56 0.08,-35.99 0.07,-71.99 0.02,-107.98 -0.02,-11.2 7.85,-22.97 21.76,-24.84 15.14,-2.03 26.63,7.21 29.35,21.13 0.22,1.1 0.13,2.26 0.13,3.4 0.01,18.28 0,36.56 0,54.84 0,17.94 -0.06,35.88 0.03,53.82 0.03,8.03 -3.2,14.32 -9.22,19.51z"/>
    <path class="fil0" d="M61.5 217.15c-0.1,0.01 -0.19,0.11 -0.27,0.19 -0.09,0.08 -0.16,0.16 -0.43,0.45 0,1.04 0,2.28 0,3.52 0,53.39 0,106.79 -0.01,160.18 0,7.02 1.76,13.46 6.18,18.99 4.99,6.24 11.5,9.86 19.56,10.13 5.9,0.2 11.81,0.03 17.72,0.05 0.87,0 1.73,0.16 2.85,0.27 0,1.43 0,2.66 0,3.89 0,17.84 0.03,35.67 -0.02,53.51 -0.02,7.55 3.09,13.79 8.62,18.5 7.52,6.4 16.4,8.1 25.79,4.85 9.83,-3.41 16.89,-12.75 16.85,-23.25 -0.07,-17.95 -0.02,-35.9 -0.01,-53.85 0,-1.22 0.09,-2.43 0.13,-3.58 3.9,-0.59 31.66,-0.48 34.5,0.16 0,1.15 0,2.38 0,3.61 0,17.84 0,35.67 0.02,53.51 0,1.47 -0.1,3 0.21,4.41 1.81,8.15 6.62,14.08 13.97,17.83 2.38,1.22 5.09,2.16 7.74,2.45 6.59,0.73 12.86,-0.49 18.41,-4.42 1.71,-1.21 3.22,-2.53 4.54,-3.95l-57.72 -267.63c-38.88,-0.01 -77.75,-0.02 -116.63,-0.02 -0.67,0 -1.34,0.11 -2.02,0.18z"/>
    <path class="fil0" d="M125.81 112.4c-0.31,-0.34 -0.6,-0.54 -0.75,-0.83 -3.2,-5.87 -6.38,-11.76 -9.58,-17.63 -2.55,-4.68 -5.09,-9.36 -7.7,-14.01 -0.42,-0.76 -1.15,-1.35 -1.59,-1.86 -1.41,0 -2.52,0 -3.9,0 -0.71,1.24 -1.41,2.48 -2.14,3.75 6.23,11.42 12.34,22.63 18.51,33.94 -1.58,0.93 -2.84,1.68 -4.12,2.41 -7.67,4.43 -14.93,9.42 -21.32,15.6 -5.22,5.05 -10.13,10.35 -14.34,16.31 -6.92,9.82 -12.25,20.39 -15.31,32.02 -1.43,5.44 -2.79,10.94 -2.9,16.66 -0.06,2.68 -0.51,5.36 -0.78,8.18 0.98,0.28 1.3,0.46 1.62,0.46 38.86,0.01 77.73,0.01 116.59,0.02l-22.33 -103.56c-10.24,1.63 -20.2,4.49 -29.95,8.55zm-2.92 53.54c-5.29,-0.3 -8.81,-3.95 -9,-9.36 -0.16,-4.51 3.97,-9.36 9.58,-9.23 4.15,0.1 9.39,3.94 8.91,9.49 0.4,4.86 -4.03,9.41 -9.5,9.09z"/>
    <path class="fil0" d="M51.26 236.87c0,-1.13 0.08,-2.3 -0.13,-3.4 -2.72,-13.91 -14.22,-23.15 -29.35,-21.13 -13.91,1.87 -21.77,13.63 -21.76,24.84 0.05,35.99 0.06,71.99 -0.02,107.98 -0.02,6.83 2.23,12.59 6.81,17.56 5.42,5.86 12.25,8.58 20.05,8.22 5.57,-0.25 10.78,-2.08 15.21,-5.91 6.02,-5.19 9.25,-11.47 9.21,-19.51 -0.08,-17.94 -0.03,-35.88 -0.03,-53.82 0,-18.28 0.01,-36.56 0,-54.84z"/>
   </g>
  </g>
 </g>
</svg>
