<?xml version="1.0" encoding="UTF-8"?>
<!DOCTYPE svg PUBLIC "-//W3C//DTD SVG 1.1//EN" "http://www.w3.org/Graphics/SVG/1.1/DTD/svg11.dtd">
<!-- Creator: CorelDRAW 2018 (64-Bit Evaluation Version) -->
<svg xmlns="http://www.w3.org/2000/svg" xml:space="preserve" width="94.2466mm" height="86.3931mm" version="1.1" style="shape-rendering:geometricPrecision; text-rendering:geometricPrecision; image-rendering:optimizeQuality; fill-rule:evenodd; clip-rule:evenodd"
viewBox="0 0 1746.88 1601.32"
 xmlns:xlink="http://www.w3.org/1999/xlink">
 <defs>
  <style type="text/css">
   <![CDATA[
    .fil0 {fill:white}
   ]]>
  </style>
 </defs>
 <g id="Layer_x0020_1">
  <metadata id="CorelCorpID_0Corel-Layer"/>
  <g id="_2093516121344">
   <g>
    <g>
     <g>
      <path class="fil0" d="M1245.48 0c-145.47,0 -295.56,87.25 -401.15,232.93l-109.18 145.57c-6.01,8 -8.46,18.09 -6.75,27.97 1.67,9.84 7.35,18.59 15.67,24.13l175.57 117.03 -249.99 187.51c-9.7,7.25 -15.14,18.87 -14.54,30.99 0.64,12.08 7.25,23.1 17.63,29.32l317.63 190.61 -247.93 185.8c-12.22,9.13 -17.41,24.95 -13.04,39.56l109.18 363.94c3.69,12.33 13.65,21.78 26.12,24.88 2.88,0.71 5.83,1.07 8.74,1.07 9.63,0 19.02,-3.84 25.94,-10.88l701 -713.23c94.46,-97.1 146.5,-226.07 146.5,-363.15 0,-283.44 -224.94,-514.06 -501.4,-514.06z"/>
      <path class="fil0" d="M698.8 1113.59l117.92 -88.39c9.7,-7.25 15.14,-18.87 14.54,-30.99 -0.64,-12.08 -7.25,-23.1 -17.63,-29.32l-178.34 -107.02c-31.2,-18.73 -50.97,-51.64 -52.85,-88 -1.88,-36.36 14.39,-71.12 43.5,-92.97l126.56 -94.89c9.45,-7.07 14.89,-18.3 14.57,-30.1 -0.36,-11.8 -6.36,-22.75 -16.21,-29.29l-47.16 -31.45c-24.84,-16.56 -42.01,-42.93 -47.06,-72.39 -5.05,-29.46 2.35,-60.06 20.26,-83.99l109.54 -145.99c2.52,-3.48 5.26,-6.72 7.96,-9.95l7.68 -9.42c11.98,-15.39 9.7,-37.46 -5.15,-50.08 -91.77,-78.08 -193.98,-119.34 -295.52,-119.34 -276.47,-0 -501.4,230.62 -501.4,514.06 0,137.08 52.03,266.05 146.64,363.29l482.11 490.53c7.04,7.15 16.46,10.88 25.94,10.88 6.36,0 12.76,-1.67 18.52,-5.08 14.39,-8.49 21.14,-25.73 16.35,-41.76l-29.85 -99.55c-13.12,-43.68 2.6,-91.41 39.1,-118.78z"/>
     </g>
    </g>
   </g>
   <g>
   </g>
   <g>
   </g>
   <g>
   </g>
   <g>
   </g>
   <g>
   </g>
   <g>
   </g>
   <g>
   </g>
   <g>
   </g>
   <g>
   </g>
   <g>
   </g>
   <g>
   </g>
   <g>
   </g>
   <g>
   </g>
   <g>
   </g>
   <g>
   </g>
  </g>
 </g>
</svg>
