<?xml version="1.0" encoding="UTF-8"?>
<!DOCTYPE svg PUBLIC "-//W3C//DTD SVG 1.1//EN" "http://www.w3.org/Graphics/SVG/1.1/DTD/svg11.dtd">
<!-- Creator: CorelDRAW 2018 (64-Bit Evaluation Version) -->
<svg xmlns="http://www.w3.org/2000/svg" xml:space="preserve" width="109.272mm" height="94.2764mm" version="1.1" style="shape-rendering:geometricPrecision; text-rendering:geometricPrecision; image-rendering:optimizeQuality; fill-rule:evenodd; clip-rule:evenodd"
viewBox="0 0 1974.55 1703.58"
 xmlns:xlink="http://www.w3.org/1999/xlink">
 <defs>
  <style type="text/css">
   <![CDATA[
    .fil0 {fill:white}
   ]]>
  </style>
 </defs>
 <g id="Layer_x0020_1">
  <metadata id="CorelCorpID_0Corel-Layer"/>
  <g id="_2093360889616">
   <g>
    <g>
     <g>
      <path class="fil0" d="M1878.93 0l-1783.31 0c-52.82,0 -95.62,42.81 -95.62,95.62l0 1118.76c0,52.81 42.8,95.62 95.62,95.62l666.95 0 0 216.68 -259.53 0c-48.77,0 -88.45,39.68 -88.45,88.45 0,48.77 39.68,88.45 88.45,88.45l968.48 0c48.77,0 88.45,-39.68 88.45,-88.45 0,-48.77 -39.68,-88.45 -88.45,-88.45l-259.53 0 0 -216.68 666.95 0c52.82,0 95.62,-42.81 95.62,-95.62l0 -1118.76c-0,-52.81 -42.81,-95.62 -95.62,-95.62zm-47.81 1166.57l-1687.69 0 0 -1023.14 1687.69 -0 0 1023.14z"/>
      <path class="fil0" d="M452.25 709.02l301.61 140.26c7.8,3.61 16.1,5.44 24.68,5.44 11.18,0 22.07,-3.17 31.54,-9.2 16.96,-10.84 27.09,-29.31 27.09,-49.41l0 -1.54c0,-22.71 -13.32,-43.58 -33.93,-53.16l-188.64 -87.64 188.64 -87.66c20.61,-9.58 33.92,-30.45 33.92,-53.15l0 -1.53c0,-20.13 -10.13,-38.6 -27.09,-49.41 -9.38,-6 -20.31,-9.16 -31.58,-9.16 -8.5,0 -17.03,1.87 -24.67,5.42l-301.58 140.24c-20.6,9.59 -33.9,30.45 -33.9,53.15l0 4.2c-0,22.67 13.3,43.53 33.91,53.15z"/>
      <path class="fil0" d="M839.85 994.7c11,15.06 28.7,24.04 47.34,24.04l1.51 -0c25.59,0 48.01,-16.38 55.8,-40.72l198.69 -615.61c5.7,-17.77 2.53,-37.38 -8.47,-52.47 -11,-15.06 -28.7,-24.05 -47.34,-24.05l-1.5 0c-25.6,0 -48.04,16.38 -55.84,40.72l-198.71 615.66c-5.65,17.78 -2.47,37.37 8.52,52.42z"/>
      <path class="fil0" d="M1137.39 512.96c0,22.69 13.3,43.56 33.92,53.17l188.64 87.64 -188.64 87.64c-20.61,9.58 -33.93,30.45 -33.93,53.16l0 1.54c0,20.1 10.12,38.57 27.1,49.42 9.44,6.01 20.34,9.19 31.53,9.19 8.57,0 16.86,-1.83 24.71,-5.46l301.59 -140.25c20.59,-9.6 33.89,-30.46 33.89,-53.14l0 -4.2c0,-22.7 -13.3,-43.57 -33.91,-53.15l-301.59 -140.25c-7.61,-3.53 -16.13,-5.41 -24.63,-5.41 -11.27,0 -22.2,3.17 -31.57,9.14 -16.99,10.82 -27.12,29.29 -27.12,49.43l0 1.53 0 0z"/>
     </g>
    </g>
   </g>
   <g>
   </g>
   <g>
   </g>
   <g>
   </g>
   <g>
   </g>
   <g>
   </g>
   <g>
   </g>
   <g>
   </g>
   <g>
   </g>
   <g>
   </g>
   <g>
   </g>
   <g>
   </g>
   <g>
   </g>
   <g>
   </g>
   <g>
   </g>
   <g>
   </g>
  </g>
 </g>
</svg>
